Coordinates
version=1
nRows=16
nColumns=40
inDegrees=yes

Units are S.I. units (second, meters, Newtons, ...)
If the header above contains a line with 'inDegrees', this indicates whether rotational values are in degrees (yes) or radians (no).

endheader
time	pelvis_tilt	pelvis_list	pelvis_rotation	pelvis_tx	pelvis_ty	pelvis_tz	hip_flexion_r	hip_adduction_r	hip_rotation_r	knee_angle_r	knee_angle_r_beta	ankle_angle_r	subtalar_angle_r	mtp_angle_r	hip_flexion_l	hip_adduction_l	hip_rotation_l	knee_angle_l	knee_angle_l_beta	ankle_angle_l	subtalar_angle_l	mtp_angle_l	lumbar_extension	lumbar_bending	lumbar_rotation	arm_flex_r	arm_add_r	arm_rot_r	elbow_flex_r	pro_sup_r	wrist_flex_r	wrist_dev_r	arm_flex_l	arm_add_l	arm_rot_l	elbow_flex_l	pro_sup_l	wrist_flex_l	wrist_dev_l
      3.72500000	    -35.96438779	     -2.17665144	      4.61146374	     -0.38465075	      0.77333310	     -0.72919854	     78.67818439	     -2.55765333	    -12.59518499	     75.91767349	      1.32501336	     19.93682905	      0.00000000	      0.00000000	     38.99620188	     -7.87938511	      8.99827319	     91.06696087	      1.58941831	     -7.13387635	      0.00000000	      0.00000000	      2.94035977	      5.45682812	     -5.59545493	     89.95950471	     -3.13043617	      9.05833761	     52.32876646	     65.08895799	      0.00000000	      0.00000000	     89.94447532	     -9.09927917	      7.81241961	     51.15352629	     66.06376185	      0.00000000	      0.00000000
      3.73000000	    -35.96547986	     -2.05298079	      4.63169757	     -0.38465450	      0.77240904	     -0.72924329	     78.80892087	     -2.67501808	    -12.52010081	     76.18148979	      1.32961783	     19.95237891	      0.00000000	      0.00000000	     38.86765204	     -7.80910858	      8.97834053	     90.97346205	      1.58778644	     -7.07741157	      0.00000000	      0.00000000	      2.90276328	      5.33573911	     -5.63444819	     89.95974711	     -3.01230280	      8.05975117	     52.02574640	     74.07322343	      0.00000000	      0.00000000	     89.94474096	     -9.05536956	      6.86621148	     50.90023470	     75.00450081	      0.00000000	      0.00000000
      3.73500000	    -36.03109489	     -2.13529063	      4.58083807	     -0.38457229	      0.77151455	     -0.72919994	     78.93760552	     -2.64093768	    -12.63367879	     76.32505805	      1.33212356	     20.03490947	      0.00000000	      0.00000000	     38.84351361	     -7.96233355	      9.05122976	     90.90894618	      1.58666043	     -7.06520490	      0.00000000	      0.00000000	      2.96336381	      5.42869407	     -5.62661609	     89.95975547	     -3.00931997	      8.66574204	     52.23117827	     68.41187192	      0.00000000	      0.00000000	     89.94487510	     -9.06696716	      7.37737032	     51.06157779	     69.19371004	      0.00000000	      0.00000000
      3.74000000	    -36.10859986	     -2.12510906	      4.56029157	     -0.38443224	      0.77053695	     -0.72926350	     79.11032470	     -2.65330091	    -12.61728300	     76.53456159	      1.33578009	     20.12531720	      0.00000000	      0.00000000	     38.82301282	     -7.99975022	      9.09332751	     90.86457845	      1.58588607	     -7.05895780	      0.00000000	      0.00000000	      3.02807790	      5.44909491	     -5.61793363	     89.95984262	     -2.96284408	      8.10031492	     51.94104866	     74.06650527	      0.00000000	      0.00000000	     89.94490914	     -9.04627182	      6.75147104	     50.95108926	     74.91414130	      0.00000000	      0.00000000
      3.74500000	    -36.07866153	     -2.26981954	      4.49710756	     -0.38432058	      0.76978445	     -0.72916887	     79.11901102	     -2.56781906	    -12.80067896	     76.63924491	      1.33760716	     20.22526392	      0.00000000	      0.00000000	     38.71550825	     -8.23117766	      9.19624940	     90.80304641	      1.58481213	     -7.05047719	      0.00000000	      0.00000000	      2.98918618	      5.62947445	     -5.57295269	     89.95992957	     -2.98451226	      8.58188206	     52.24635063	     69.98770994	      0.00000000	      0.00000000	     89.94493502	     -9.07493269	      7.15750823	     51.12292195	     70.65666258	      0.00000000	      0.00000000
      3.75000000	    -36.16618362	     -2.15578709	      4.49799714	     -0.38460539	      0.76886233	     -0.72926761	     79.33393385	     -2.63019150	    -12.67418670	     76.84299222	      1.34116322	     20.40704624	      0.00000000	      0.00000000	     38.74716470	     -8.13021847	      9.01694621	     90.74082121	      1.58372610	     -7.32331673	      0.00000000	      0.00000000	      3.03245163	      5.50194172	     -5.53063026	     89.96009662	     -3.06050591	      9.28954659	     52.65624246	     61.66815879	      0.00000000	      0.00000000	     89.94510092	     -9.00669690	      7.76524267	     51.58323925	     62.14631179	      0.00000000	      0.00000000
      3.75500000	    -36.12598092	     -2.21710952	      4.40959345	     -0.38444303	      0.76814790	     -0.72914993	     79.34909690	     -2.55299913	    -12.77706547	     76.97621115	      1.34348833	     20.36932787	      0.00000000	      0.00000000	     38.56044043	     -8.40765856	      9.12904533	     90.71739464	      1.58331723	     -6.97567100	      0.00000000	      0.00000000	      2.96209752	      5.59248371	     -5.46070107	     89.96021530	     -2.95625795	      7.99184170	     52.21716734	     74.26907345	      0.00000000	      0.00000000	     89.94540204	     -8.95617458	      6.60552147	     51.15890209	     74.47871918	      0.00000000	      0.00000000
      3.76000000	    -36.27940447	     -2.19904464	      4.35816060	     -0.38438342	      0.76705980	     -0.72910678	     79.58153376	     -2.52194856	    -12.74981691	     77.12900314	      1.34615505	     20.57528953	      0.00000000	      0.00000000	     38.62792095	     -8.37856889	      9.21845516	     90.67743372	      1.58261978	     -7.07857949	      0.00000000	      0.00000000	      3.11862816	      5.58195999	     -5.43506303	     89.96014797	     -2.97249366	      8.51712723	     52.41977161	     69.34471598	      0.00000000	      0.00000000	     89.94554968	     -8.94638867	      6.98517535	     51.25629292	     69.50775823	      0.00000000	      0.00000000
      3.76500000	    -36.35222267	     -2.35131920	      4.28301064	     -0.38420111	      0.76610887	     -0.72892906	     79.72294735	     -2.42359156	    -12.91131967	     77.28918184	      1.34895070	     20.60807553	      0.00000000	      0.00000000	     38.61316950	     -8.71586464	      9.32529752	     90.47020447	      1.57900294	     -6.66012893	      0.00000000	      0.00000000	      3.18954576	      5.76650077	     -5.41184732	     89.96026509	     -2.89026878	      8.04045927	     52.27012479	     74.18907339	      0.00000000	      0.00000000	     89.94528791	     -8.99818620	      6.53317001	     51.20915981	     74.30449536	      0.00000000	      0.00000000
      3.77000000	    -36.42138874	     -2.36244147	      4.26940628	     -0.38423114	      0.76526163	     -0.72895771	     79.87630585	     -2.42514345	    -12.91960309	     77.45394653	      1.35182639	     20.66526376	      0.00000000	      0.00000000	     38.61700527	     -8.84472338	      9.22737646	     90.48323004	      1.57923028	     -6.53398625	      0.00000000	      0.00000000	      3.23929509	      5.80695240	     -5.43285124	     89.96040346	     -2.79749409	      7.99158289	     52.29092110	     74.36724911	      0.00000000	      0.00000000	     89.94533582	     -9.05307958	      6.52466680	     51.25068507	     74.29491868	      0.00000000	      0.00000000
      3.77500000	    -36.33853000	     -2.38265903	      4.15157666	     -0.38415671	      0.76452290	     -0.72884690	     79.86692630	     -2.31901577	    -12.93848117	     77.60535602	      1.35446898	     20.73093765	      0.00000000	      0.00000000	     38.45863469	     -8.92181807	      9.19460500	     90.49705302	      1.57947154	     -6.60772505	      0.00000000	      0.00000000	      3.10385429	      5.85517860	     -5.31268798	     89.96059683	     -2.83308794	      8.07796877	     52.39696146	     73.45305265	      0.00000000	      0.00000000	     89.94561212	     -9.02185289	      6.55369143	     51.36328225	     73.42467375	      0.00000000	      0.00000000
      3.78000000	    -36.17704893	     -2.04311843	      4.04367225	     -0.38404794	      0.76390803	     -0.72884592	     79.88261696	     -2.35049224	    -12.58799434	     77.93516994	      1.36022532	     20.58835234	      0.00000000	      0.00000000	     38.02313589	     -8.69383727	      8.87784296	     90.39222542	      1.57764195	     -6.08055854	      0.00000000	      0.00000000	      2.89344726	      5.50178115	     -5.18550546	     89.96076686	     -2.77133849	      8.55589511	     52.47613484	     66.86388787	      0.00000000	      0.00000000	     89.94637299	     -8.79809105	      6.64833321	     51.38143014	     66.77766306	      0.00000000	      0.00000000
      3.78500000	    -36.52442122	     -2.35666975	      4.04598781	     -0.38419797	      0.76264674	     -0.72870845	     80.26293153	     -2.24822753	    -12.86327244	     77.96846367	      1.36080640	     20.88817312	      0.00000000	      0.00000000	     38.44391986	     -9.05984659	      9.34782391	     90.34096343	      1.57674726	     -6.92123939	      0.00000000	      0.00000000	      3.25924586	      5.83426412	     -5.26088024	     89.96062449	     -2.77071345	      7.93604768	     52.45215671	     74.54496116	      0.00000000	      0.00000000	     89.94596485	     -9.00542776	      6.39520747	     51.32019060	     74.83575844	      0.00000000	      0.00000000
      3.79000000	    -36.56174234	     -2.36936357	      4.04160339	     -0.38417932	      0.76174807	     -0.72878742	     80.38649890	     -2.25234746	    -12.85925471	     78.14951792	      1.36396640	     21.04325664	      0.00000000	      0.00000000	     38.40606757	     -9.09621167	      9.43034645	     90.32793050	      1.57651979	     -6.92630656	      0.00000000	      0.00000000	      3.28935977	      5.85636530	     -5.22010494	     89.96061707	     -2.84748461	      8.42621766	     52.63880113	     70.14472929	      0.00000000	      0.00000000	     89.94601276	     -8.96292181	      6.71973464	     51.56585651	     70.33871137	      0.00000000	      0.00000000
      3.79500000	    -36.57084968	     -2.39078268	      4.05645822	     -0.38425060	      0.76103964	     -0.72879802	     80.48055751	     -2.28333604	    -12.89695149	     78.30872556	      1.36674509	     21.05640531	      0.00000000	      0.00000000	     38.36200708	     -9.14212018	      9.52293501	     90.30612954	      1.57613930	     -6.95816298	      0.00000000	      0.00000000	      3.25774689	      5.88783555	     -5.29139664	     89.96086141	     -2.76502192	      7.91114023	     52.54917499	     74.30434367	      0.00000000	      0.00000000	     89.94620817	     -8.96760249	      6.25387787	     51.49502509	     74.41160227	      0.00000000	      0.00000000
      3.80000000	    -36.42516965	     -2.23750366	      3.94706993	     -0.38400223	      0.76042743	     -0.72882820	     80.45656698	     -2.24207394	    -12.72457402	     78.57452325	      1.37138414	     20.94401353	      0.00000000	      0.00000000	     37.97895684	     -9.07532379	      9.40514723	     90.21911262	      1.57462056	     -6.52397740	      0.00000000	      0.00000000	      3.07255505	      5.75764019	     -5.17312559	     89.96099832	     -2.70577143	      8.24325100	     52.54631338	     70.03126403	      0.00000000	      0.00000000	     89.94657372	     -8.83523343	      6.37859417	     51.51946527	     70.08853396	      0.00000000	      0.00000000
